<svg id="svg" version="1.1" xmlns="http://www.w3.org/2000/svg" xmlns:xlink="http://www.w3.org/1999/xlink" width="400" height="400.56497175141243" viewBox="0, 0, 400,400.56497175141243"><g id="svgg"><path id="path0" d="M192.000 2.634 C 153.189 5.221,123.221 14.624,93.671 33.489 C 89.677 36.039,87.922 36.942,87.022 36.906 C 86.350 36.880,82.470 36.579,78.400 36.237 C 59.264 34.630,60.167 34.676,58.979 35.255 C 56.534 36.446,56.718 39.514,59.459 43.237 L 61.291 45.726 61.013 48.542 C 60.861 50.091,60.391 53.438,59.969 55.979 C 59.547 58.521,59.202 60.737,59.201 60.905 C 59.201 61.073,57.529 63.053,55.486 65.305 C 13.633 111.448,-4.220 171.409,5.815 232.123 C 22.826 335.040,117.838 406.609,222.000 394.968 C 310.916 385.030,382.168 316.416,394.764 228.600 C 396.450 216.844,396.599 214.439,396.589 199.200 C 396.557 148.361,379.242 103.542,345.098 65.914 L 341.571 62.028 340.310 53.627 L 339.049 45.225 341.461 42.713 C 344.048 40.018,344.763 38.208,344.017 36.244 C 343.179 34.041,343.044 34.039,315.400 36.001 L 311.000 36.313 309.000 35.081 C 279.925 17.160,255.798 8.194,226.000 4.236 C 216.579 2.985,199.094 2.161,192.000 2.634 M221.000 12.361 C 246.041 15.834,269.093 23.469,287.600 34.418 C 295.272 38.956,295.352 39.350,288.986 41.176 C 287.438 41.620,283.402 43.337,280.018 44.991 C 276.633 46.646,273.615 48.000,273.312 48.000 C 272.097 48.000,270.365 46.699,269.611 45.221 C 268.604 43.247,268.805 43.302,258.584 42.257 C 247.649 41.139,247.644 41.136,250.867 37.112 C 251.610 36.185,251.670 35.872,251.275 35.006 C 250.349 32.972,249.354 32.913,242.681 34.498 C 231.804 37.082,228.900 37.291,229.319 35.461 C 229.427 34.987,229.641 34.044,229.795 33.365 C 230.426 30.573,228.583 30.264,222.515 32.146 C 210.699 35.811,186.420 35.192,175.408 30.945 C 169.807 28.785,166.935 31.102,170.837 34.633 C 171.902 35.597,171.807 36.733,170.637 37.026 C 169.651 37.274,166.974 36.806,157.703 34.766 C 149.138 32.881,146.379 34.007,149.750 38.014 C 152.466 41.241,148.799 42.400,135.865 42.400 C 129.555 42.400,129.003 42.658,130.152 45.069 C 130.972 46.789,130.446 47.659,128.122 48.426 C 126.818 48.856,126.441 48.733,121.467 46.255 C 118.567 44.811,113.916 42.894,111.131 41.995 C 103.763 39.619,103.627 38.883,109.881 35.229 C 141.374 16.832,186.412 7.563,221.000 12.361 M219.184 42.100 C 219.413 42.375,219.943 43.048,220.361 43.595 C 221.310 44.837,225.014 45.107,232.154 44.455 C 237.478 43.968,237.953 44.063,238.276 45.678 C 238.610 47.351,239.699 47.875,243.876 48.373 C 248.037 48.868,259.179 51.599,261.839 52.776 C 264.180 53.811,264.103 54.534,261.371 57.214 C 255.147 63.318,251.146 71.146,253.200 73.200 C 254.698 74.698,255.545 74.255,259.792 69.752 C 282.252 45.945,323.045 38.503,329.948 56.953 C 334.264 68.490,333.007 81.539,327.044 87.089 C 323.724 90.178,324.524 92.000,329.200 92.000 C 332.459 92.000,331.915 93.901,327.206 98.971 C 323.749 102.694,323.407 103.311,323.584 105.500 C 323.673 106.600,321.992 106.742,319.787 105.820 C 318.168 105.144,318.093 104.755,319.267 103.106 C 320.408 101.503,320.372 99.849,319.167 98.557 C 317.233 96.484,313.123 93.490,309.955 91.847 C 305.646 89.611,305.876 89.202,312.452 87.417 C 318.866 85.676,317.608 83.074,309.378 81.060 C 303.829 79.703,305.067 78.351,313.313 76.765 C 320.888 75.309,319.321 72.437,310.935 72.410 C 305.061 72.390,300.627 73.737,297.234 76.571 C 295.489 78.029,292.798 78.568,292.188 77.581 C 291.195 75.974,304.395 67.255,312.509 64.158 C 320.151 61.242,320.426 58.400,313.065 58.400 C 299.998 58.400,287.001 66.391,276.094 81.132 C 269.289 90.329,269.452 91.814,277.000 89.341 C 282.965 87.387,296.400 87.934,296.400 90.131 C 296.400 91.089,295.506 91.530,292.184 92.213 C 280.516 94.611,273.728 101.484,284.453 100.041 C 296.319 98.444,312.347 100.995,308.700 103.900 C 308.425 104.120,306.670 104.514,304.800 104.777 C 290.074 106.848,285.888 110.783,297.836 111.323 C 309.451 111.848,318.864 114.517,328.531 120.028 C 333.107 122.636,334.800 123.877,334.800 124.620 C 334.800 125.289,334.961 125.274,328.400 125.222 C 320.948 125.162,320.383 126.243,326.506 128.848 C 330.746 130.652,335.462 133.698,340.305 137.763 C 346.792 143.207,346.503 143.690,337.508 142.439 C 327.028 140.981,326.456 141.288,331.072 145.885 C 337.693 152.479,341.239 158.024,344.758 167.285 C 347.733 175.116,347.459 176.267,343.277 173.512 C 341.805 172.542,339.690 171.178,338.577 170.482 C 336.196 168.991,335.308 168.058,333.871 165.537 C 332.515 163.158,328.585 159.568,320.887 153.678 C 307.281 143.267,303.134 140.945,292.663 137.875 C 286.954 136.201,287.378 136.596,286.205 131.859 C 277.200 95.496,225.811 94.043,213.380 129.800 C 211.692 134.655,211.669 134.667,207.048 132.928 C 202.008 131.032,195.779 131.423,189.320 134.041 C 187.645 134.720,186.669 133.903,186.017 131.275 C 183.478 121.052,173.403 109.959,163.020 105.955 C 142.030 97.860,117.403 111.413,113.000 133.481 C 112.556 135.708,111.441 136.655,107.896 137.818 C 96.665 141.500,86.001 146.921,81.204 151.388 C 79.307 153.154,75.605 156.067,72.977 157.860 C 67.290 161.741,66.571 162.458,66.055 164.754 C 65.516 167.153,63.151 169.472,58.236 172.418 C 52.404 175.915,52.096 175.759,53.541 170.043 C 55.606 161.879,60.598 153.153,67.091 146.356 C 71.732 141.498,71.638 141.453,60.096 143.029 C 54.214 143.832,53.472 143.678,54.314 141.829 C 55.222 139.837,65.339 132.574,72.200 128.989 C 78.775 125.554,78.444 124.971,70.153 125.382 C 62.460 125.763,62.114 125.066,68.144 121.327 C 78.456 114.932,92.133 110.811,103.074 110.802 C 110.276 110.796,109.881 108.266,102.400 106.490 C 99.371 105.770,97.403 105.402,92.340 104.608 C 88.520 104.008,89.950 101.745,94.880 100.588 C 99.266 99.559,108.750 99.349,114.250 100.158 C 118.889 100.841,119.772 100.771,120.187 99.689 C 120.917 97.788,114.276 93.876,107.768 92.372 C 103.647 91.420,102.541 90.851,102.916 89.875 C 103.766 87.660,116.379 87.323,122.600 89.348 C 129.711 91.663,129.739 90.323,122.768 81.200 C 111.842 66.901,98.569 58.814,85.764 58.655 C 78.311 58.563,77.672 61.194,84.600 63.449 C 92.080 65.884,109.207 76.770,108.178 78.435 C 107.409 79.680,103.603 78.798,101.716 76.939 C 98.068 73.342,91.582 71.537,85.240 72.354 C 77.838 73.307,77.877 75.709,85.315 76.962 C 91.190 77.953,95.303 79.721,94.163 80.767 C 93.963 80.950,92.000 81.414,89.800 81.796 C 79.798 83.537,79.511 86.224,89.115 88.215 C 97.493 89.952,97.947 90.533,91.913 91.791 C 82.953 93.660,76.686 99.908,79.629 104.041 C 80.917 105.849,80.535 106.338,76.661 107.833 C 72.576 109.411,72.656 109.399,71.829 108.571 C 70.782 107.525,71.109 106.810,73.008 105.996 C 76.177 104.638,75.968 103.340,71.864 98.870 C 67.145 93.730,66.841 92.000,70.656 92.000 C 75.016 92.000,75.361 90.676,71.975 86.940 C 70.642 85.469,69.292 83.764,68.976 83.153 C 65.997 77.393,66.770 62.675,70.461 54.889 C 78.098 38.777,120.078 47.994,139.747 70.102 C 142.934 73.684,143.786 74.241,145.443 73.825 C 148.999 72.932,145.879 65.212,139.111 58.157 C 134.713 53.574,134.785 53.416,142.343 51.042 C 147.827 49.319,151.717 48.552,156.887 48.176 C 161.053 47.872,161.664 47.562,162.152 45.506 C 162.529 43.920,163.600 43.817,169.869 44.765 C 177.228 45.878,176.974 45.906,179.061 43.759 L 180.851 41.917 184.925 42.259 C 189.431 42.636,208.307 42.467,213.130 42.006 C 217.897 41.550,218.737 41.563,219.184 42.100 M198.300 48.832 C 196.460 49.904,195.856 53.512,197.101 55.996 C 198.486 58.761,201.386 58.518,202.579 55.535 C 204.390 51.011,201.725 46.837,198.300 48.832 M176.422 50.107 C 174.703 50.977,173.812 52.996,174.353 54.801 C 175.377 58.220,178.991 59.514,180.964 57.169 C 183.814 53.783,180.214 48.188,176.422 50.107 M219.283 50.592 C 216.806 52.676,216.609 55.895,218.844 57.776 C 222.863 61.157,228.556 54.494,224.831 50.769 C 223.286 49.225,220.995 49.151,219.283 50.592 M117.862 63.931 C 116.397 65.550,116.906 66.365,123.300 72.652 C 130.603 79.831,132.574 80.898,133.592 78.221 C 135.446 73.345,121.120 60.331,117.862 63.931 M161.500 63.991 C 159.055 65.918,161.037 69.419,166.769 73.297 C 168.243 74.295,170.209 74.208,170.977 73.111 C 173.812 69.064,165.370 60.941,161.500 63.991 M208.824 64.063 C 205.302 67.344,204.946 74.590,208.233 76.088 C 210.279 77.020,213.721 72.272,214.253 67.785 C 214.691 64.085,211.298 61.759,208.824 64.063 M232.778 64.330 C 227.259 67.837,225.840 74.007,230.554 73.999 C 232.230 73.996,237.464 69.797,238.649 67.505 C 240.488 63.948,236.648 61.871,232.778 64.330 M276.179 64.189 C 269.422 67.568,262.355 78.707,266.702 79.126 C 269.329 79.379,281.600 68.188,281.600 65.540 C 281.600 63.299,279.170 62.694,276.179 64.189 M186.694 64.100 C 184.498 65.768,185.015 71.195,187.659 74.206 C 190.468 77.406,193.785 74.694,192.980 69.855 C 192.163 64.949,189.177 62.215,186.694 64.100 M342.556 79.029 C 342.913 79.961,342.119 81.155,340.946 81.449 C 339.342 81.852,338.891 80.476,340.111 78.900 C 340.658 78.194,342.268 78.278,342.556 79.029 M197.436 84.431 C 194.580 87.824,197.006 97.538,200.490 96.663 C 203.037 96.024,204.210 86.558,202.030 84.234 C 200.637 82.748,198.785 82.828,197.436 84.431 M222.459 84.348 C 215.433 88.093,210.205 104.000,216.000 104.000 C 217.398 104.000,217.898 103.368,220.119 98.800 C 221.369 96.230,222.943 93.859,224.983 91.474 C 226.643 89.535,228.021 87.645,228.047 87.274 C 228.263 84.211,225.465 82.746,222.459 84.348 M172.262 84.731 C 170.928 86.206,171.644 88.780,174.005 91.000 C 176.012 92.886,178.605 96.728,180.127 100.069 C 183.166 106.735,187.254 104.984,185.387 97.816 C 182.921 88.347,175.597 81.046,172.262 84.731 M347.677 85.300 C 348.024 85.575,350.098 88.500,352.286 91.800 C 390.850 149.956,397.418 217.522,370.181 275.900 C 367.717 281.180,366.974 280.807,366.002 273.800 C 362.761 250.447,355.838 228.811,345.674 210.276 L 343.485 206.283 343.564 198.946 C 343.609 194.691,343.435 190.249,343.147 188.373 C 342.436 183.724,342.890 183.637,349.811 187.096 C 358.557 191.466,359.601 190.458,357.579 179.600 C 355.396 167.872,353.055 161.059,349.314 155.540 C 346.746 151.751,347.198 151.310,352.978 151.960 C 358.652 152.599,360.400 152.136,360.400 149.996 C 360.400 148.168,355.754 141.864,350.830 137.011 C 347.592 133.819,347.472 133.439,349.412 132.513 C 352.944 130.829,349.417 125.505,339.700 117.850 C 335.989 114.927,335.941 115.353,340.362 111.892 C 345.181 108.120,345.215 106.496,340.478 106.316 L 337.400 106.200 340.163 103.400 C 346.358 97.124,347.011 94.105,341.822 95.741 C 338.207 96.880,337.861 96.112,340.223 92.189 C 343.627 86.538,346.218 84.142,347.677 85.300 M56.219 88.900 C 60.665 94.471,61.420 96.974,58.400 96.128 C 52.822 94.565,52.535 97.631,57.777 102.786 C 60.743 105.704,60.582 106.379,56.914 106.395 C 53.050 106.411,55.097 110.309,60.713 113.628 C 63.337 115.179,63.006 115.853,58.017 119.117 C 54.279 121.562,49.311 126.238,48.239 128.320 C 47.308 130.127,47.730 131.078,49.933 132.137 C 52.114 133.186,52.293 134.160,50.532 135.391 C 46.695 138.074,39.255 147.084,38.537 149.916 C 37.949 152.236,41.590 153.013,48.400 152.021 C 52.579 151.412,52.787 152.093,49.799 156.585 C 45.348 163.273,43.950 167.421,42.041 179.600 C 40.352 190.374,40.967 190.922,50.124 186.803 C 55.923 184.194,56.437 184.333,55.467 188.241 C 54.468 192.262,54.343 194.700,54.841 200.390 L 55.323 205.885 52.910 211.042 C 43.115 231.980,36.679 252.154,34.164 269.800 C 32.460 281.757,32.113 281.979,28.381 273.500 C 4.875 220.106,8.511 160.740,38.626 106.200 C 44.992 94.671,51.242 85.600,52.820 85.600 C 53.300 85.600,54.569 86.832,56.219 88.900 M146.700 89.484 C 145.076 91.292,146.095 92.316,150.995 93.797 C 156.833 95.562,160.396 97.129,163.871 99.463 C 169.559 103.281,170.860 99.776,165.554 94.928 C 160.905 90.681,148.773 87.177,146.700 89.484 M245.397 89.579 C 236.549 91.900,229.717 97.157,230.469 101.064 C 230.722 102.377,232.004 102.098,235.125 100.052 C 238.781 97.655,242.815 95.751,248.000 93.975 C 256.594 91.031,254.345 87.232,245.397 89.579 M328.572 107.555 C 328.693 107.750,328.568 108.089,328.296 108.309 C 327.723 108.770,326.000 108.248,326.000 107.613 C 326.000 107.109,328.265 107.058,328.572 107.555 M157.597 113.602 C 177.356 119.235,185.295 144.346,172.368 160.323 C 153.421 183.739,116.745 166.117,121.902 136.075 C 124.759 119.431,141.366 108.976,157.597 113.602 M256.200 113.173 C 264.578 115.184,271.625 120.766,275.257 128.270 C 279.000 136.003,277.587 136.847,269.744 131.560 C 250.920 118.871,235.653 121.857,225.894 140.138 C 222.269 146.929,222.257 147.199,225.516 149.062 C 226.552 149.655,228.236 150.739,229.257 151.472 C 241.675 160.383,258.067 156.999,264.181 144.261 C 266.235 139.981,266.393 139.883,270.035 140.646 C 271.446 140.942,273.703 141.187,275.051 141.192 C 278.284 141.203,278.579 141.579,278.289 145.310 C 276.784 164.661,254.449 176.827,236.701 167.964 C 206.095 152.679,222.990 105.204,256.200 113.173 M147.600 124.442 C 140.097 125.204,122.895 134.693,123.274 137.862 C 123.519 139.916,125.153 140.600,129.817 140.600 C 134.682 140.600,134.702 140.613,136.157 144.504 C 141.006 157.480,156.875 160.412,171.094 150.958 C 177.302 146.830,177.408 146.532,174.545 141.233 C 169.284 131.494,162.588 125.405,156.304 124.644 C 152.636 124.200,150.481 124.150,147.600 124.442 M154.294 133.310 C 157.141 135.915,154.429 140.945,150.569 140.221 C 146.786 139.511,146.487 134.426,150.132 132.778 C 151.966 131.948,152.942 132.073,154.294 133.310 M251.208 132.604 C 254.850 134.487,253.303 140.800,249.200 140.800 C 247.051 140.800,244.800 138.698,244.800 136.691 C 244.800 133.235,248.216 131.057,251.208 132.604 M202.792 140.798 C 208.731 141.925,211.241 144.054,211.972 148.587 C 217.145 180.655,260.125 191.095,279.847 165.074 C 282.197 161.973,284.937 156.264,285.833 152.600 C 287.234 146.873,287.485 146.764,293.625 149.210 C 304.436 153.517,311.638 158.972,319.663 168.933 C 326.562 177.496,326.615 178.747,319.981 176.408 C 313.195 174.015,312.637 175.115,318.460 179.406 C 323.482 183.106,331.582 190.161,332.782 191.879 C 335.495 195.767,334.723 206.392,331.181 213.904 C 328.467 219.659,327.695 219.854,327.175 214.918 C 325.892 202.738,317.848 192.693,303.332 185.144 C 297.242 181.978,296.157 182.574,299.821 187.073 C 304.140 192.377,305.502 194.251,308.486 199.000 C 312.430 205.278,312.440 205.298,315.001 212.839 C 317.888 221.341,317.884 221.401,314.544 219.007 C 307.340 213.844,306.714 214.146,306.049 223.097 C 305.359 232.389,303.195 238.071,298.321 243.389 C 294.595 247.455,293.634 246.667,292.194 238.366 C 290.595 229.149,285.902 227.730,283.438 235.718 C 278.492 251.748,257.640 259.447,246.956 249.188 C 243.457 245.828,242.980 245.883,238.690 250.145 C 233.265 255.533,227.713 257.822,227.886 254.600 C 228.096 250.658,227.552 250.465,223.239 252.953 C 204.480 263.773,191.049 264.202,178.400 254.384 C 173.261 250.395,172.668 250.000,171.820 250.000 C 170.450 250.000,170.000 250.799,170.000 253.231 C 170.000 258.005,165.612 256.270,160.716 249.561 C 158.277 246.219,157.367 245.855,155.279 247.389 C 144.751 255.120,134.539 256.040,126.772 249.956 C 121.163 245.562,116.667 240.006,114.983 235.388 C 112.524 228.647,110.670 229.440,106.215 239.138 C 103.163 245.782,102.884 246.009,100.720 243.600 C 95.287 237.553,92.550 231.161,92.171 223.632 C 91.700 214.303,90.908 213.857,83.971 219.022 C 78.083 223.406,78.116 223.694,83.023 210.758 C 85.046 205.424,91.979 195.371,98.922 187.700 C 102.586 183.653,100.543 182.888,94.199 185.932 C 80.594 192.460,74.238 200.078,71.392 213.264 C 70.213 218.728,69.682 219.150,68.163 215.831 C 63.579 205.819,63.740 193.232,68.507 188.982 C 76.006 182.296,78.145 180.789,81.581 179.769 C 82.614 179.462,84.745 178.308,86.316 177.205 C 93.352 172.263,89.740 172.076,78.799 176.814 C 70.501 180.408,69.788 179.785,74.648 173.185 C 82.592 162.397,94.766 153.383,107.355 148.965 C 111.656 147.455,112.073 147.706,113.749 152.813 C 126.504 191.687,180.658 187.425,187.404 147.015 C 188.105 142.814,196.191 139.547,202.792 140.798 M193.600 166.158 C 183.611 169.025,180.841 177.195,188.312 181.752 C 198.287 187.838,197.880 196.791,187.349 202.971 C 177.316 208.859,160.979 209.434,167.211 203.681 C 170.430 200.708,168.865 199.145,164.645 201.120 C 154.408 205.911,135.311 225.298,137.456 228.722 C 138.464 230.330,139.402 229.772,143.506 225.122 C 148.913 218.995,156.465 211.699,157.726 211.383 C 158.500 211.189,159.334 211.479,161.078 212.550 C 170.062 218.068,184.167 216.015,195.474 207.544 C 199.285 204.689,199.788 204.666,202.922 207.214 C 212.707 215.168,226.340 217.599,237.465 213.373 C 241.301 211.917,241.750 211.849,243.049 212.530 C 244.689 213.391,250.196 218.956,254.556 224.158 C 259.043 229.511,259.249 229.692,260.676 229.529 C 264.001 229.148,259.086 221.705,248.836 211.600 C 243.725 206.561,233.065 198.400,231.594 198.400 C 229.333 198.400,229.833 200.528,232.764 203.385 C 236.338 206.869,235.377 207.793,228.200 207.776 C 213.336 207.741,199.839 196.796,204.017 188.165 C 205.096 185.936,208.124 183.153,211.109 181.646 C 216.440 178.955,216.956 174.699,212.527 169.963 C 208.953 166.142,199.957 164.334,193.600 166.158 M205.883 173.453 C 207.379 174.569,207.292 175.163,205.451 176.414 C 204.598 176.992,203.506 178.121,203.022 178.922 C 200.566 182.991,199.850 182.962,195.885 178.629 C 192.789 175.246,192.373 174.451,193.300 173.685 C 195.139 172.167,203.943 172.004,205.883 173.453 M173.941 185.371 C 173.370 186.623,173.788 188.258,174.820 188.811 C 176.761 189.850,178.699 187.327,177.438 185.402 C 176.537 184.026,174.561 184.008,173.941 185.371 M221.280 184.880 C 219.996 186.164,221.267 189.200,223.089 189.200 C 223.927 189.200,225.200 187.669,225.200 186.662 C 225.200 184.862,222.518 183.642,221.280 184.880 M232.229 187.029 C 230.268 188.989,231.698 190.294,236.616 191.032 C 245.970 192.438,263.742 197.859,277.706 203.567 C 282.954 205.712,284.200 205.908,284.954 204.706 C 286.033 202.983,278.420 199.077,262.827 193.352 C 247.469 187.715,234.270 184.987,232.229 187.029 M158.200 187.243 C 155.461 187.637,141.803 191.549,138.200 192.971 C 118.218 200.860,114.400 202.738,114.400 204.675 C 114.400 206.816,116.142 206.603,122.400 203.695 C 134.324 198.155,150.728 193.312,164.114 191.381 C 166.605 191.022,167.806 190.075,167.470 188.736 C 167.002 186.872,164.066 186.399,158.200 187.243 M28.560 193.360 C 25.150 196.770,29.039 202.594,33.118 200.185 C 37.019 197.880,35.785 192.000,31.400 192.000 C 30.250 192.000,29.617 192.303,28.560 193.360 M366.171 192.924 C 363.498 195.223,365.024 200.400,368.375 200.400 C 370.400 200.400,372.582 198.117,372.582 195.998 C 372.582 192.671,368.654 190.787,366.171 192.924 M221.200 195.600 C 220.130 196.670,220.191 197.828,221.382 199.018 C 222.638 200.274,223.340 200.257,224.371 198.946 C 226.522 196.211,223.635 193.165,221.200 195.600 M173.280 195.680 C 172.043 196.917,173.370 200.000,175.138 200.000 C 176.949 200.000,177.871 197.131,176.469 195.862 C 175.613 195.088,173.966 194.994,173.280 195.680 M235.067 195.467 C 233.318 197.215,237.298 200.028,246.400 203.477 C 252.945 205.956,263.406 212.499,271.187 218.979 C 275.827 222.844,277.213 223.484,277.939 222.100 C 278.551 220.931,277.851 219.916,273.775 216.058 C 261.780 204.707,238.311 192.222,235.067 195.467 M158.200 196.545 C 144.790 200.258,118.489 218.832,121.864 222.207 C 123.025 223.368,123.846 222.922,130.880 217.312 C 138.330 211.371,148.334 205.298,152.200 204.371 C 155.558 203.566,164.800 198.316,164.800 197.213 C 164.800 195.507,162.712 195.296,158.200 196.545 M365.400 210.303 C 363.964 210.645,362.557 211.922,361.822 213.551 C 359.188 219.392,367.787 223.672,370.532 217.887 C 372.415 213.919,369.334 209.368,365.400 210.303 M32.000 210.681 C 29.698 211.519,28.049 214.725,28.781 216.941 C 30.039 220.754,34.468 221.736,36.974 218.758 C 39.975 215.192,36.245 209.137,32.000 210.681 M340.388 219.583 C 346.262 227.832,355.816 262.555,357.563 282.000 C 358.980 297.787,359.203 296.247,354.557 302.776 C 352.821 305.216,350.356 308.695,349.080 310.506 C 333.625 332.447,308.049 353.417,279.987 367.158 C 265.112 374.441,265.814 374.446,267.348 367.065 C 268.226 362.840,268.186 358.235,267.244 355.108 C 266.828 353.729,265.917 350.620,265.218 348.200 C 263.667 342.827,261.987 339.332,258.143 333.488 C 256.525 331.025,255.200 328.796,255.200 328.534 C 255.200 327.935,256.311 326.800,256.897 326.800 C 257.138 326.800,259.870 325.790,262.968 324.556 C 274.020 320.153,278.610 317.316,291.169 307.128 C 301.701 298.585,301.618 299.519,292.736 289.400 C 284.352 279.847,284.322 280.593,293.200 277.762 C 295.730 276.956,299.420 275.578,301.400 274.701 C 303.380 273.823,306.881 272.403,309.179 271.544 C 317.004 268.621,318.067 267.480,317.214 262.921 C 315.192 252.130,314.745 249.305,314.208 243.946 C 313.870 240.585,313.694 237.197,313.816 236.418 C 313.938 235.638,314.127 234.415,314.237 233.700 C 314.586 231.425,315.715 232.009,318.165 235.730 C 323.722 244.167,324.792 244.186,329.628 235.929 C 331.217 233.218,333.215 229.871,334.070 228.490 C 334.925 227.110,336.101 224.500,336.684 222.690 C 338.216 217.930,338.839 217.408,340.388 219.583 M60.051 221.200 C 60.237 221.530,61.086 223.453,61.938 225.474 C 64.725 232.084,70.796 240.800,72.613 240.800 C 73.448 240.800,76.293 238.015,80.350 233.227 C 81.385 232.006,82.366 231.212,82.750 231.285 C 85.246 231.762,84.710 248.957,81.818 261.228 C 80.239 267.926,80.857 268.734,90.000 271.943 C 93.630 273.217,97.171 274.558,97.869 274.924 C 98.567 275.289,101.717 276.473,104.869 277.555 C 112.222 280.078,112.000 279.980,112.000 280.698 C 112.000 281.759,108.629 286.442,104.729 290.800 C 96.354 300.157,95.902 298.809,112.896 315.132 C 119.841 321.803,127.083 329.048,128.988 331.231 C 130.893 333.415,134.434 337.290,136.858 339.843 C 141.856 345.108,143.904 347.763,146.976 352.961 C 148.159 354.963,149.793 357.230,150.607 358.000 C 152.172 359.479,157.016 365.372,159.979 369.400 C 162.165 372.372,165.388 376.170,168.686 379.661 C 173.140 384.376,171.917 384.597,158.800 381.449 C 127.895 374.033,96.555 356.939,71.448 333.805 C 63.020 326.040,57.245 319.357,49.149 308.000 C 39.443 294.386,39.860 295.073,40.122 293.126 C 40.250 292.177,40.721 288.407,41.168 284.749 C 43.867 262.709,49.266 240.933,55.884 225.400 C 58.011 220.410,59.030 219.382,60.051 221.200 M115.064 252.791 C 118.368 256.303,121.527 258.821,125.647 261.227 C 129.358 263.395,131.754 266.883,136.168 276.541 C 138.056 280.672,139.600 284.156,139.600 284.284 C 139.600 284.533,148.166 304.819,154.091 318.600 C 156.077 323.220,158.467 328.890,159.401 331.200 C 162.165 338.028,164.948 344.656,167.382 350.200 C 172.259 361.312,175.838 371.600,174.827 371.600 C 174.614 371.600,173.324 370.025,171.961 368.100 C 170.598 366.175,168.466 363.430,167.223 362.000 C 164.971 359.408,163.035 356.994,154.394 346.000 C 140.627 328.485,129.069 315.984,116.926 305.477 C 113.161 302.219,110.000 299.242,109.900 298.862 C 109.546 297.506,110.437 296.412,119.108 287.561 C 130.113 276.329,130.240 275.939,123.550 274.015 C 120.149 273.037,115.561 271.448,106.800 268.214 C 103.390 266.955,98.817 265.315,96.637 264.568 C 92.307 263.085,91.359 262.458,91.023 260.859 C 90.733 259.476,92.162 252.622,93.011 251.327 L 93.671 250.319 97.736 254.566 C 101.326 258.318,101.956 258.813,103.140 258.807 C 106.241 258.791,108.904 256.337,110.231 252.271 C 111.374 248.767,111.268 248.756,115.064 252.791 M288.227 252.931 C 290.653 260.411,294.312 260.711,301.727 254.040 C 304.781 251.292,304.910 251.294,306.216 254.115 C 307.801 257.535,308.305 261.395,307.340 262.715 C 306.492 263.873,286.341 271.024,276.663 273.601 C 268.739 275.712,268.522 276.539,274.318 282.542 C 276.473 284.774,279.515 288.130,281.077 290.000 C 282.639 291.870,284.836 294.293,285.958 295.385 C 288.883 298.229,288.880 298.239,283.600 302.623 C 271.887 312.346,270.396 313.034,269.258 309.234 C 268.736 307.494,268.110 306.907,263.043 303.400 C 259.080 300.657,258.777 300.061,259.808 297.030 C 260.706 294.387,260.432 293.251,258.353 290.996 C 256.504 288.990,256.509 288.893,258.675 285.079 C 259.449 283.715,261.347 280.080,262.893 277.000 C 264.439 273.920,266.536 270.110,267.552 268.533 C 268.568 266.956,269.940 264.803,270.600 263.748 C 271.502 262.306,273.080 260.918,276.956 258.155 C 279.791 256.134,283.112 253.479,284.335 252.257 C 286.888 249.703,287.198 249.756,288.227 252.931 M158.139 261.441 C 162.998 265.093,167.208 266.582,173.775 266.969 C 180.841 267.386,180.841 267.385,173.100 275.050 C 165.004 283.066,164.763 283.198,160.800 281.800 C 158.320 280.925,157.941 280.999,158.227 282.300 C 159.028 285.944,163.976 292.806,166.207 293.366 C 167.829 293.773,169.644 292.630,173.019 289.076 C 183.764 277.763,182.539 278.301,186.485 283.157 C 189.983 287.462,189.993 287.517,188.008 291.734 C 187.106 293.651,186.000 296.698,185.550 298.504 C 184.864 301.261,184.458 302.083,183.021 303.619 C 179.391 307.499,179.477 306.902,179.223 330.080 C 178.936 356.163,179.153 355.811,172.813 340.497 C 170.560 335.054,167.454 327.720,165.912 324.200 C 164.370 320.680,160.537 311.860,157.395 304.600 C 154.253 297.340,150.327 288.323,148.670 284.562 C 146.967 280.696,145.460 276.632,145.202 275.213 C 144.952 273.832,144.017 271.000,143.125 268.920 C 141.215 264.467,141.149 264.611,145.690 263.314 C 147.511 262.794,150.260 261.760,151.800 261.016 C 155.388 259.283,155.257 259.275,158.139 261.441 M248.800 261.592 C 251.330 262.236,254.210 262.886,255.200 263.037 C 259.067 263.623,259.179 264.198,256.431 269.326 C 255.348 271.347,254.156 274.080,253.784 275.400 C 253.204 277.452,251.138 282.288,247.931 289.097 C 246.514 292.106,245.000 292.749,236.860 293.799 C 234.143 294.150,229.283 294.983,226.060 295.650 C 214.025 298.140,214.032 298.142,210.949 291.860 C 208.496 286.862,208.415 287.446,212.186 282.886 C 215.662 278.680,215.585 278.646,224.623 288.467 C 229.324 293.577,233.084 293.002,236.898 286.591 C 239.473 282.264,239.437 282.000,236.282 282.000 C 232.577 282.000,230.468 280.582,225.115 274.489 C 222.742 271.788,220.800 269.227,220.800 268.797 C 220.800 267.975,220.858 267.953,225.000 267.189 C 229.277 266.400,232.903 265.087,237.800 262.554 C 240.619 261.095,242.930 260.143,243.400 260.246 C 243.840 260.342,246.270 260.948,248.800 261.592 M248.324 302.116 C 248.492 303.515,247.710 303.863,242.738 304.605 C 240.462 304.945,235.810 305.747,232.400 306.389 C 228.990 307.031,224.310 307.849,222.000 308.207 C 208.800 310.251,201.574 312.048,201.048 313.418 C 200.194 315.645,201.628 315.803,210.338 314.445 C 214.442 313.805,220.140 312.974,223.000 312.600 C 225.860 312.225,230.515 311.388,233.343 310.741 C 243.840 308.338,253.143 307.167,253.956 308.147 C 255.059 309.476,250.928 310.536,232.000 313.777 C 224.850 315.002,215.850 316.546,212.000 317.208 C 203.963 318.591,201.829 318.681,200.350 317.698 C 190.065 310.865,190.076 310.251,200.518 308.629 C 204.303 308.042,210.227 307.026,213.683 306.371 C 217.138 305.717,223.438 304.651,227.683 304.002 C 231.927 303.353,237.918 302.299,240.996 301.659 C 247.038 300.404,248.126 300.472,248.324 302.116 M191.400 323.169 C 192.720 323.824,194.399 324.576,195.131 324.841 C 197.859 325.828,198.956 330.807,196.689 331.913 C 193.697 333.371,187.200 328.758,187.200 325.174 C 187.200 321.565,187.694 321.329,191.400 323.169 M247.863 334.500 C 254.090 340.236,258.198 350.272,258.135 359.600 C 258.073 368.715,257.703 369.258,250.469 370.846 C 218.928 377.771,204.497 350.213,232.632 336.785 C 241.538 332.534,245.142 331.993,247.863 334.500 M191.981 336.194 C 196.665 337.787,196.282 336.090,196.567 356.488 C 196.792 372.580,196.837 372.305,194.037 371.851 C 192.306 371.570,188.402 368.960,187.747 367.646 C 187.069 366.284,187.315 336.625,188.011 335.786 C 188.635 335.035,188.547 335.025,191.981 336.194 M191.741 377.612 C 196.657 379.240,197.770 380.934,196.382 384.674 C 195.416 387.275,194.252 387.154,190.023 384.013 C 186.294 381.244,185.025 378.632,186.629 377.029 C 187.456 376.201,187.494 376.205,191.741 377.612 " stroke="none" fill="#1c1b23" fill-rule="evenodd"></path><path id="path1" d="M186.276 11.612 C 160.245 13.916,130.764 23.030,109.881 35.229 C 103.627 38.883,103.763 39.619,111.131 41.995 C 113.916 42.894,118.567 44.811,121.467 46.255 C 126.441 48.733,126.818 48.856,128.122 48.426 C 130.446 47.659,130.972 46.789,130.152 45.069 C 129.003 42.658,129.555 42.400,135.865 42.400 C 148.799 42.400,152.466 41.241,149.750 38.014 C 146.379 34.007,149.138 32.881,157.703 34.766 C 166.974 36.806,169.651 37.274,170.637 37.026 C 171.807 36.733,171.902 35.597,170.837 34.633 C 166.935 31.102,169.807 28.785,175.408 30.945 C 186.420 35.192,210.699 35.811,222.515 32.146 C 228.583 30.264,230.426 30.573,229.795 33.365 C 229.641 34.044,229.427 34.987,229.319 35.461 C 228.900 37.291,231.804 37.082,242.681 34.498 C 249.354 32.913,250.349 32.972,251.275 35.006 C 251.670 35.872,251.610 36.185,250.867 37.112 C 247.644 41.136,247.649 41.139,258.584 42.257 C 268.805 43.302,268.604 43.247,269.611 45.221 C 270.365 46.699,272.097 48.000,273.312 48.000 C 273.615 48.000,276.633 46.646,280.018 44.991 C 283.402 43.337,287.438 41.620,288.986 41.176 C 295.352 39.350,295.272 38.956,287.600 34.418 C 259.374 17.718,219.268 8.692,186.276 11.612 M213.130 42.006 C 208.307 42.467,189.431 42.636,184.925 42.259 L 180.851 41.917 179.061 43.759 C 176.974 45.906,177.228 45.878,169.869 44.765 C 163.600 43.817,162.529 43.920,162.152 45.506 C 161.664 47.562,161.053 47.872,156.887 48.176 C 151.717 48.552,147.827 49.319,142.343 51.042 C 134.785 53.416,134.713 53.574,139.111 58.157 C 145.879 65.212,148.999 72.932,145.443 73.825 C 143.786 74.241,142.934 73.684,139.747 70.102 C 120.078 47.994,78.098 38.777,70.461 54.889 C 66.770 62.675,65.997 77.393,68.976 83.153 C 69.292 83.764,70.642 85.469,71.975 86.940 C 75.361 90.676,75.016 92.000,70.656 92.000 C 66.841 92.000,67.145 93.730,71.864 98.870 C 75.968 103.340,76.177 104.638,73.008 105.996 C 71.109 106.810,70.782 107.525,71.829 108.571 C 72.656 109.399,72.576 109.411,76.661 107.833 C 80.535 106.338,80.917 105.849,79.629 104.041 C 76.686 99.908,82.953 93.660,91.913 91.791 C 97.947 90.533,97.493 89.952,89.115 88.215 C 79.511 86.224,79.798 83.537,89.800 81.796 C 92.000 81.414,93.963 80.950,94.163 80.767 C 95.303 79.721,91.190 77.953,85.315 76.962 C 77.877 75.709,77.838 73.307,85.240 72.354 C 91.582 71.537,98.068 73.342,101.716 76.939 C 103.603 78.798,107.409 79.680,108.178 78.435 C 109.207 76.770,92.080 65.884,84.600 63.449 C 77.672 61.194,78.311 58.563,85.764 58.655 C 98.569 58.814,111.842 66.901,122.768 81.200 C 129.739 90.323,129.711 91.663,122.600 89.348 C 116.379 87.323,103.766 87.660,102.916 89.875 C 102.541 90.851,103.647 91.420,107.768 92.372 C 114.276 93.876,120.917 97.788,120.187 99.689 C 119.772 100.771,118.889 100.841,114.250 100.158 C 108.750 99.349,99.266 99.559,94.880 100.588 C 89.950 101.745,88.520 104.008,92.340 104.608 C 103.748 106.398,108.000 107.650,108.000 109.220 C 108.000 110.324,106.520 110.800,103.074 110.802 C 92.133 110.811,78.456 114.932,68.144 121.327 C 62.114 125.066,62.460 125.763,70.153 125.382 C 78.444 124.971,78.775 125.554,72.200 128.989 C 65.339 132.574,55.222 139.837,54.314 141.829 C 53.472 143.678,54.214 143.832,60.096 143.029 C 71.638 141.453,71.732 141.498,67.091 146.356 C 59.583 154.215,52.117 168.782,52.872 174.098 C 53.282 176.984,65.206 168.531,66.055 164.754 C 66.571 162.458,67.290 161.741,72.977 157.860 C 75.605 156.067,79.307 153.154,81.204 151.388 C 86.001 146.921,96.665 141.500,107.896 137.818 C 111.441 136.655,112.556 135.708,113.000 133.481 C 117.403 111.413,142.030 97.860,163.020 105.955 C 173.403 109.959,183.478 121.052,186.017 131.275 C 186.669 133.903,187.645 134.720,189.320 134.041 C 195.779 131.423,202.008 131.032,207.048 132.928 C 211.669 134.667,211.692 134.655,213.380 129.800 C 220.195 110.198,241.471 99.051,260.570 105.076 C 273.360 109.111,283.089 119.275,286.205 131.859 C 287.378 136.596,286.954 136.201,292.663 137.875 C 303.134 140.945,307.281 143.267,320.887 153.678 C 328.585 159.568,332.515 163.158,333.871 165.537 C 335.308 168.058,336.196 168.991,338.577 170.482 C 339.690 171.178,341.805 172.542,343.277 173.512 C 347.459 176.267,347.733 175.116,344.758 167.285 C 341.239 158.024,337.693 152.479,331.072 145.885 C 326.456 141.288,327.028 140.981,337.508 142.439 C 346.503 143.690,346.792 143.207,340.305 137.763 C 335.462 133.698,330.746 130.652,326.506 128.848 C 320.383 126.243,320.948 125.162,328.400 125.222 C 334.961 125.274,334.800 125.289,334.800 124.620 C 334.800 123.877,333.107 122.636,328.531 120.028 C 318.864 114.517,309.451 111.848,297.836 111.323 C 285.888 110.783,290.074 106.848,304.800 104.777 C 306.670 104.514,308.425 104.120,308.700 103.900 C 312.347 100.995,296.319 98.444,284.453 100.041 C 273.728 101.484,280.516 94.611,292.184 92.213 C 295.506 91.530,296.400 91.089,296.400 90.131 C 296.400 87.934,282.965 87.387,277.000 89.341 C 269.452 91.814,269.289 90.329,276.094 81.132 C 287.001 66.391,299.998 58.400,313.065 58.400 C 320.426 58.400,320.151 61.242,312.509 64.158 C 304.395 67.255,291.195 75.974,292.188 77.581 C 292.798 78.568,295.489 78.029,297.234 76.571 C 300.627 73.737,305.061 72.390,310.935 72.410 C 319.321 72.437,320.888 75.309,313.313 76.765 C 305.067 78.351,303.829 79.703,309.378 81.060 C 317.608 83.074,318.866 85.676,312.452 87.417 C 305.876 89.202,305.646 89.611,309.955 91.847 C 313.123 93.490,317.233 96.484,319.167 98.557 C 320.372 99.849,320.408 101.503,319.267 103.106 C 318.093 104.755,318.168 105.144,319.787 105.820 C 321.992 106.742,323.673 106.600,323.584 105.500 C 323.407 103.311,323.749 102.694,327.206 98.971 C 331.915 93.901,332.459 92.000,329.200 92.000 C 324.524 92.000,323.724 90.178,327.044 87.089 C 333.007 81.539,334.264 68.490,329.948 56.953 C 323.045 38.503,282.252 45.945,259.792 69.752 C 255.545 74.255,254.698 74.698,253.200 73.200 C 251.146 71.146,255.147 63.318,261.371 57.214 C 264.103 54.534,264.180 53.811,261.839 52.776 C 259.179 51.599,248.037 48.868,243.876 48.373 C 239.699 47.875,238.610 47.351,238.276 45.678 C 237.953 44.063,237.478 43.968,232.154 44.455 C 225.014 45.107,221.310 44.837,220.361 43.595 C 218.632 41.334,219.094 41.435,213.130 42.006 M201.382 48.648 C 203.897 49.614,203.593 56.212,200.968 57.617 C 198.783 58.786,196.402 56.421,196.401 53.080 C 196.399 49.714,198.737 47.634,201.382 48.648 M179.613 50.207 C 182.074 51.479,182.763 55.031,180.964 57.169 C 178.103 60.570,172.395 55.821,174.668 51.931 C 175.940 49.752,177.609 49.170,179.613 50.207 M224.831 50.769 C 227.543 53.482,225.040 58.800,221.051 58.800 C 219.605 58.800,217.674 57.001,217.368 55.369 C 216.552 51.020,221.829 47.768,224.831 50.769 M122.724 64.281 C 129.817 67.869,136.406 77.995,132.599 79.456 C 130.801 80.146,117.200 67.959,117.200 65.659 C 117.200 63.131,119.379 62.588,122.724 64.281 M167.403 64.802 C 171.993 67.960,173.094 74.006,169.077 73.997 C 166.208 73.991,160.400 68.560,160.400 65.882 C 160.400 63.077,164.073 62.511,167.403 64.802 M213.410 64.485 C 215.992 67.553,211.516 77.584,208.233 76.088 C 205.718 74.942,205.136 70.959,206.916 67.071 C 208.784 62.992,211.308 61.987,213.410 64.485 M238.171 63.828 C 240.264 65.922,237.833 70.038,232.600 73.258 C 230.454 74.579,227.600 73.516,227.600 71.397 C 227.600 66.903,235.552 61.209,238.171 63.828 M280.800 64.000 C 282.507 65.707,281.412 67.474,274.961 73.420 C 267.967 79.869,265.559 80.897,265.279 77.557 C 264.822 72.098,277.673 60.873,280.800 64.000 M190.500 64.393 C 193.195 66.513,193.960 73.937,191.613 75.193 C 187.373 77.462,182.770 67.080,186.694 64.100 C 187.666 63.362,189.354 63.492,190.500 64.393 M340.111 78.900 C 338.891 80.476,339.342 81.852,340.946 81.449 C 342.119 81.155,342.913 79.961,342.556 79.029 C 342.268 78.278,340.658 78.194,340.111 78.900 M202.030 84.234 C 204.210 86.558,203.037 96.024,200.490 96.663 C 197.798 97.339,196.125 93.489,196.348 87.131 C 196.467 83.757,199.928 81.992,202.030 84.234 M226.957 84.500 C 227.936 85.380,228.144 85.907,228.047 87.274 C 228.021 87.645,226.643 89.535,224.983 91.474 C 222.943 93.859,221.369 96.230,220.119 98.800 C 217.898 103.368,217.398 104.000,216.000 104.000 C 213.572 104.000,212.878 101.746,213.983 97.449 C 216.433 87.924,223.224 81.146,226.957 84.500 M177.854 85.140 C 182.700 88.651,187.241 99.240,185.415 102.771 C 184.041 105.428,182.123 104.447,180.127 100.069 C 178.605 96.728,176.012 92.886,174.005 91.000 C 169.225 86.506,172.615 81.345,177.854 85.140 M345.335 85.560 C 342.694 88.021,338.800 93.929,338.800 95.476 C 338.800 96.576,339.090 96.602,341.822 95.741 C 347.011 94.105,346.358 97.124,340.163 103.400 L 337.400 106.200 340.478 106.316 C 345.215 106.496,345.181 108.120,340.362 111.892 C 335.941 115.353,335.989 114.927,339.700 117.850 C 349.417 125.505,352.944 130.829,349.412 132.513 C 347.472 133.439,347.592 133.819,350.830 137.011 C 355.754 141.864,360.400 148.168,360.400 149.996 C 360.400 152.136,358.652 152.599,352.978 151.960 C 347.198 151.310,346.746 151.751,349.314 155.540 C 353.055 161.059,355.396 167.872,357.579 179.600 C 359.601 190.458,358.557 191.466,349.811 187.096 C 342.890 183.637,342.436 183.724,343.147 188.373 C 343.435 190.249,343.609 194.691,343.564 198.946 L 343.485 206.283 345.674 210.276 C 355.838 228.811,362.761 250.447,366.002 273.800 C 366.974 280.807,367.717 281.180,370.181 275.900 C 397.418 217.522,390.850 149.956,352.286 91.800 C 347.337 84.336,346.986 84.022,345.335 85.560 M50.699 87.300 C 38.024 103.207,23.358 135.236,18.196 158.287 C 8.931 199.660,12.211 236.770,28.381 273.500 C 32.113 281.979,32.460 281.757,34.164 269.800 C 36.679 252.154,43.115 231.980,52.910 211.042 L 55.323 205.885 54.841 200.390 C 54.343 194.700,54.468 192.262,55.467 188.241 C 56.437 184.333,55.923 184.194,50.124 186.803 C 40.967 190.922,40.352 190.374,42.041 179.600 C 43.950 167.421,45.348 163.273,49.799 156.585 C 52.787 152.093,52.579 151.412,48.400 152.021 C 41.590 153.013,37.949 152.236,38.537 149.916 C 39.255 147.084,46.695 138.074,50.532 135.391 C 52.293 134.160,52.114 133.186,49.933 132.137 C 47.730 131.078,47.308 130.127,48.239 128.320 C 49.311 126.238,54.279 121.562,58.017 119.117 C 63.006 115.853,63.337 115.179,60.713 113.628 C 55.097 110.309,53.050 106.411,56.914 106.395 C 60.582 106.379,60.743 105.704,57.777 102.786 C 52.535 97.631,52.822 94.565,58.400 96.128 C 61.420 96.974,60.665 94.471,56.219 88.900 C 53.162 85.069,52.605 84.908,50.699 87.300 M156.863 90.194 C 164.741 92.903,171.315 99.426,167.971 101.215 C 167.262 101.595,166.672 101.343,163.871 99.463 C 160.396 97.129,156.833 95.562,150.995 93.797 C 147.289 92.677,146.000 91.921,146.000 90.870 C 146.000 88.461,150.931 88.155,156.863 90.194 M252.469 89.462 C 254.270 91.092,253.169 92.204,248.000 93.975 C 242.815 95.751,238.781 97.655,235.125 100.052 C 228.163 104.616,228.931 98.326,235.922 93.516 C 240.802 90.159,250.589 87.761,252.469 89.462 M326.000 107.613 C 326.000 108.248,327.723 108.770,328.296 108.309 C 328.568 108.089,328.693 107.750,328.572 107.555 C 328.265 107.058,326.000 107.109,326.000 107.613 M144.400 112.944 C 118.427 119.031,112.772 153.224,135.472 166.931 C 154.534 178.441,178.800 164.479,178.800 142.000 C 178.800 124.070,161.018 109.050,144.400 112.944 M242.168 113.378 C 216.287 120.070,212.691 155.973,236.701 167.964 C 254.449 176.827,276.784 164.661,278.289 145.310 C 278.579 141.579,278.284 141.203,275.051 141.192 C 273.703 141.187,271.446 140.942,270.035 140.646 C 266.393 139.883,266.235 139.981,264.181 144.261 C 258.067 156.999,241.675 160.383,229.257 151.472 C 228.236 150.739,226.552 149.655,225.516 149.062 C 222.257 147.199,222.269 146.929,225.894 140.138 C 235.653 121.857,250.920 118.871,269.744 131.560 C 277.587 136.847,279.000 136.003,275.257 128.270 C 269.410 116.190,255.502 109.931,242.168 113.378 M156.304 124.644 C 162.588 125.405,169.284 131.494,174.545 141.233 C 177.408 146.532,177.302 146.830,171.094 150.958 C 156.875 160.412,141.006 157.480,136.157 144.504 C 134.702 140.613,134.682 140.600,129.817 140.600 C 125.153 140.600,123.519 139.916,123.274 137.862 C 123.097 136.380,124.401 135.302,131.756 130.851 C 141.815 124.765,146.829 123.497,156.304 124.644 M150.132 132.778 C 148.226 133.640,147.600 134.565,147.600 136.520 C 147.600 139.400,150.559 141.166,153.145 139.829 C 157.812 137.415,154.908 130.618,150.132 132.778 M247.105 132.626 C 245.025 133.755,244.156 136.902,245.424 138.713 C 247.305 141.398,251.479 141.339,252.722 138.611 C 254.632 134.418,250.978 130.525,247.105 132.626 M196.800 140.807 C 191.639 141.704,187.875 144.191,187.404 147.015 C 185.696 157.246,181.363 164.921,173.759 171.189 C 152.857 188.415,122.367 179.079,113.749 152.813 C 112.073 147.706,111.656 147.455,107.355 148.965 C 94.766 153.383,82.592 162.397,74.648 173.185 C 69.788 179.785,70.501 180.408,78.799 176.814 C 89.740 172.076,93.352 172.263,86.316 177.205 C 84.745 178.308,82.614 179.462,81.581 179.769 C 78.145 180.789,76.006 182.296,68.507 188.982 C 63.740 193.232,63.579 205.819,68.163 215.831 C 69.682 219.150,70.213 218.728,71.392 213.264 C 74.238 200.078,80.594 192.460,94.199 185.932 C 100.543 182.888,102.586 183.653,98.922 187.700 C 91.979 195.371,85.046 205.424,83.023 210.758 C 78.116 223.694,78.083 223.406,83.971 219.022 C 90.908 213.857,91.700 214.303,92.171 223.632 C 92.550 231.161,95.287 237.553,100.720 243.600 C 102.884 246.009,103.163 245.782,106.215 239.138 C 110.670 229.440,112.524 228.647,114.983 235.388 C 116.667 240.006,121.163 245.562,126.772 249.956 C 134.539 256.040,144.751 255.120,155.279 247.389 C 157.367 245.855,158.277 246.219,160.716 249.561 C 165.612 256.270,170.000 258.005,170.000 253.231 C 170.000 250.799,170.450 250.000,171.820 250.000 C 172.668 250.000,173.261 250.395,178.400 254.384 C 191.049 264.202,204.480 263.773,223.239 252.953 C 227.552 250.465,228.096 250.658,227.886 254.600 C 227.713 257.822,233.265 255.533,238.690 250.145 C 242.980 245.883,243.457 245.828,246.956 249.188 C 257.640 259.447,278.492 251.748,283.438 235.718 C 285.902 227.730,290.595 229.149,292.194 238.366 C 293.634 246.667,294.595 247.455,298.321 243.389 C 303.195 238.071,305.359 232.389,306.049 223.097 C 306.714 214.146,307.340 213.844,314.544 219.007 C 317.884 221.401,317.888 221.341,315.001 212.839 C 312.440 205.298,312.430 205.278,308.486 199.000 C 305.502 194.251,304.140 192.377,299.821 187.073 C 296.157 182.574,297.242 181.978,303.332 185.144 C 317.848 192.693,325.892 202.738,327.175 214.918 C 327.695 219.854,328.467 219.659,331.181 213.904 C 334.723 206.392,335.495 195.767,332.782 191.879 C 331.582 190.161,323.482 183.106,318.460 179.406 C 312.637 175.115,313.195 174.015,319.981 176.408 C 326.615 178.747,326.562 177.496,319.663 168.933 C 311.638 158.972,304.436 153.517,293.625 149.210 C 287.485 146.764,287.234 146.873,285.833 152.600 C 284.937 156.264,282.197 161.973,279.847 165.074 C 260.125 191.095,217.145 180.655,211.972 148.587 C 211.015 142.654,204.726 139.429,196.800 140.807 M208.294 166.952 C 216.391 170.692,217.839 178.249,211.109 181.646 C 208.124 183.153,205.096 185.936,204.017 188.165 C 199.839 196.796,213.336 207.741,228.200 207.776 C 235.377 207.793,236.338 206.869,232.764 203.385 C 229.833 200.528,229.333 198.400,231.594 198.400 C 233.065 198.400,243.725 206.561,248.836 211.600 C 259.086 221.705,264.001 229.148,260.676 229.529 C 259.249 229.692,259.043 229.511,254.556 224.158 C 250.196 218.956,244.689 213.391,243.049 212.530 C 241.750 211.849,241.301 211.917,237.465 213.373 C 226.340 217.599,212.707 215.168,202.922 207.214 C 199.788 204.666,199.285 204.689,195.474 207.544 C 184.167 216.015,170.062 218.068,161.078 212.550 C 159.334 211.479,158.500 211.189,157.726 211.383 C 156.465 211.699,148.913 218.995,143.506 225.122 C 139.402 229.772,138.464 230.330,137.456 228.722 C 135.311 225.298,154.408 205.911,164.645 201.120 C 168.865 199.145,170.430 200.708,167.211 203.681 C 160.979 209.434,177.316 208.859,187.349 202.971 C 197.880 196.791,198.287 187.838,188.312 181.752 C 180.841 177.195,183.611 169.025,193.600 166.158 C 197.095 165.155,205.371 165.602,208.294 166.952 M195.200 172.851 C 191.976 173.821,192.049 174.438,195.885 178.629 C 199.850 182.962,200.566 182.991,203.022 178.922 C 203.506 178.121,204.598 176.992,205.451 176.414 C 207.292 175.163,207.379 174.569,205.883 173.453 C 204.585 172.483,197.708 172.096,195.200 172.851 M177.438 185.402 C 178.699 187.327,176.761 189.850,174.820 188.811 C 173.788 188.258,173.370 186.623,173.941 185.371 C 174.561 184.008,176.537 184.026,177.438 185.402 M224.469 185.062 C 225.790 186.258,224.809 189.200,223.089 189.200 C 221.267 189.200,219.996 186.164,221.280 184.880 C 221.966 184.194,223.613 184.288,224.469 185.062 M240.800 186.981 C 251.702 188.634,280.741 199.404,284.594 203.224 C 285.218 203.841,285.295 204.161,284.954 204.706 C 284.200 205.908,282.954 205.712,277.706 203.567 C 263.742 197.859,245.970 192.438,236.616 191.032 C 232.425 190.403,231.600 189.999,231.600 188.580 C 231.600 186.302,233.800 185.920,240.800 186.981 M166.191 187.269 C 168.807 188.461,167.585 190.880,164.114 191.381 C 150.728 193.312,134.324 198.155,122.400 203.695 C 116.142 206.603,114.400 206.816,114.400 204.675 C 114.400 202.738,118.218 200.860,138.200 192.971 C 148.694 188.828,163.150 185.883,166.191 187.269 M34.240 193.360 C 37.142 196.262,34.579 201.373,30.596 200.626 C 25.747 199.716,26.466 192.000,31.400 192.000 C 32.550 192.000,33.183 192.303,34.240 193.360 M371.285 193.159 C 373.218 194.886,373.145 197.162,371.097 199.039 C 368.111 201.775,364.510 199.954,364.900 195.905 C 365.260 192.150,368.565 190.729,371.285 193.159 M224.786 195.574 C 225.635 197.160,224.459 200.000,222.953 200.000 C 222.085 200.000,220.400 198.164,220.400 197.218 C 220.400 195.194,223.884 193.888,224.786 195.574 M176.469 195.862 C 177.871 197.131,176.949 200.000,175.138 200.000 C 173.370 200.000,172.043 196.917,173.280 195.680 C 173.966 194.994,175.613 195.088,176.469 195.862 M241.303 195.827 C 252.457 198.717,279.884 218.387,277.939 222.100 C 277.213 223.484,275.827 222.844,271.187 218.979 C 263.406 212.499,252.945 205.956,246.400 203.477 C 237.298 200.028,233.318 197.215,235.067 195.467 C 235.540 194.994,238.818 195.183,241.303 195.827 M164.171 196.229 C 164.990 197.047,164.964 197.417,164.026 198.284 C 162.647 199.560,154.257 203.878,152.200 204.371 C 148.334 205.298,138.330 211.371,130.880 217.312 C 123.846 222.922,123.025 223.368,121.864 222.207 C 120.552 220.895,124.466 216.595,132.735 210.265 C 144.722 201.089,161.528 193.585,164.171 196.229 M369.066 211.087 C 371.022 212.353,371.689 215.448,370.532 217.887 C 369.037 221.037,365.506 221.629,362.956 219.157 C 358.591 214.927,363.986 207.800,369.066 211.087 M36.447 211.953 C 41.082 216.588,34.888 223.589,30.112 219.115 C 28.013 217.148,28.100 213.974,30.309 211.916 C 32.523 209.854,34.359 209.865,36.447 211.953 M338.121 218.900 C 337.913 219.175,337.267 220.881,336.684 222.690 C 336.101 224.500,334.925 227.110,334.070 228.490 C 333.215 229.871,331.217 233.218,329.628 235.929 C 324.792 244.186,323.722 244.167,318.165 235.730 C 315.715 232.009,314.586 231.425,314.237 233.700 C 314.127 234.415,313.938 235.638,313.816 236.418 C 313.694 237.197,313.870 240.585,314.208 243.946 C 314.745 249.305,315.192 252.130,317.214 262.921 C 318.067 267.480,317.004 268.621,309.179 271.544 C 306.881 272.403,303.380 273.823,301.400 274.701 C 299.420 275.578,295.730 276.956,293.200 277.762 C 284.322 280.593,284.352 279.847,292.736 289.400 C 301.618 299.519,301.701 298.585,291.169 307.128 C 278.610 317.316,274.020 320.153,262.968 324.556 C 259.870 325.790,257.138 326.800,256.897 326.800 C 256.311 326.800,255.200 327.935,255.200 328.534 C 255.200 328.796,256.525 331.025,258.143 333.488 C 261.987 339.332,263.667 342.827,265.218 348.200 C 265.917 350.620,266.828 353.729,267.244 355.108 C 268.186 358.235,268.226 362.840,267.348 367.065 C 265.814 374.446,265.112 374.441,279.987 367.158 C 308.049 353.417,333.625 332.447,349.080 310.506 C 350.356 308.695,352.821 305.216,354.557 302.776 C 359.203 296.247,358.980 297.787,357.563 282.000 C 355.373 257.622,341.900 213.893,338.121 218.900 M57.849 221.276 C 52.238 229.902,44.085 260.928,41.168 284.749 C 40.721 288.407,40.250 292.177,40.122 293.126 C 39.860 295.073,39.443 294.386,49.149 308.000 C 57.245 319.357,63.020 326.040,71.448 333.805 C 96.555 356.939,127.895 374.033,158.800 381.449 C 171.917 384.597,173.140 384.376,168.686 379.661 C 165.388 376.170,162.165 372.372,159.979 369.400 C 157.016 365.372,152.172 359.479,150.607 358.000 C 149.793 357.230,148.159 354.963,146.976 352.961 C 143.904 347.763,141.856 345.108,136.858 339.843 C 134.434 337.290,130.893 333.415,128.988 331.231 C 127.083 329.048,119.841 321.803,112.896 315.132 C 95.902 298.809,96.354 300.157,104.729 290.800 C 108.629 286.442,112.000 281.759,112.000 280.698 C 112.000 279.980,112.222 280.078,104.869 277.555 C 101.717 276.473,98.567 275.289,97.869 274.924 C 97.171 274.558,93.630 273.217,90.000 271.943 C 80.857 268.734,80.239 267.926,81.818 261.228 C 84.710 248.957,85.246 231.762,82.750 231.285 C 82.366 231.212,81.385 232.006,80.350 233.227 C 76.293 238.015,73.448 240.800,72.613 240.800 C 70.796 240.800,64.725 232.084,61.938 225.474 C 59.625 219.990,59.062 219.412,57.849 221.276 M111.077 249.900 C 110.983 250.065,110.602 251.132,110.231 252.271 C 108.904 256.337,106.241 258.791,103.140 258.807 C 101.956 258.813,101.326 258.318,97.736 254.566 L 93.671 250.319 93.011 251.327 C 92.162 252.622,90.733 259.476,91.023 260.859 C 91.359 262.458,92.307 263.085,96.637 264.568 C 98.817 265.315,103.390 266.955,106.800 268.214 C 115.561 271.448,120.149 273.037,123.550 274.015 C 130.240 275.939,130.113 276.329,119.108 287.561 C 110.437 296.412,109.546 297.506,109.900 298.862 C 110.000 299.242,113.161 302.219,116.926 305.477 C 129.069 315.984,140.627 328.485,154.394 346.000 C 163.035 356.994,164.971 359.408,167.223 362.000 C 168.466 363.430,170.598 366.175,171.961 368.100 C 173.324 370.025,174.614 371.600,174.827 371.600 C 175.838 371.600,172.259 361.312,167.382 350.200 C 164.948 344.656,162.165 338.028,159.401 331.200 C 158.467 328.890,156.077 323.220,154.091 318.600 C 148.166 304.819,139.600 284.533,139.600 284.284 C 139.600 284.156,138.056 280.672,136.168 276.541 C 131.754 266.883,129.358 263.395,125.647 261.227 C 121.527 258.821,118.368 256.303,115.064 252.791 C 112.211 249.757,111.465 249.217,111.077 249.900 M284.335 252.257 C 283.112 253.479,279.791 256.134,276.956 258.155 C 273.080 260.918,271.502 262.306,270.600 263.748 C 269.940 264.803,268.568 266.956,267.552 268.533 C 266.536 270.110,264.439 273.920,262.893 277.000 C 261.347 280.080,259.449 283.715,258.675 285.079 C 256.509 288.893,256.504 288.990,258.353 290.996 C 260.432 293.251,260.706 294.387,259.808 297.030 C 258.777 300.061,259.080 300.657,263.043 303.400 C 268.110 306.907,268.736 307.494,269.258 309.234 C 270.396 313.034,271.887 312.346,283.600 302.623 C 288.880 298.239,288.883 298.229,285.958 295.385 C 284.836 294.293,282.639 291.870,281.077 290.000 C 279.515 288.130,276.473 284.774,274.318 282.542 C 268.522 276.539,268.739 275.712,276.663 273.601 C 286.341 271.024,306.492 263.873,307.340 262.715 C 308.305 261.395,307.801 257.535,306.216 254.115 C 304.910 251.294,304.781 251.292,301.727 254.040 C 294.312 260.711,290.653 260.411,288.227 252.931 C 287.198 249.756,286.888 249.703,284.335 252.257 M151.800 261.016 C 150.260 261.760,147.511 262.794,145.690 263.314 C 141.149 264.611,141.215 264.467,143.125 268.920 C 144.017 271.000,144.952 273.832,145.202 275.213 C 145.460 276.632,146.967 280.696,148.670 284.562 C 150.327 288.323,154.253 297.340,157.395 304.600 C 160.537 311.860,164.370 320.680,165.912 324.200 C 167.454 327.720,170.560 335.054,172.813 340.497 C 179.153 355.811,178.936 356.163,179.223 330.080 C 179.477 306.902,179.391 307.499,183.021 303.619 C 184.458 302.083,184.864 301.261,185.550 298.504 C 186.000 296.698,187.106 293.651,188.008 291.734 C 189.993 287.517,189.983 287.462,186.485 283.157 C 182.539 278.301,183.764 277.763,173.019 289.076 C 169.644 292.630,167.829 293.773,166.207 293.366 C 163.976 292.806,159.028 285.944,158.227 282.300 C 157.941 280.999,158.320 280.925,160.800 281.800 C 164.763 283.198,165.004 283.066,173.100 275.050 C 180.841 267.385,180.841 267.386,173.775 266.969 C 167.208 266.582,162.998 265.093,158.139 261.441 C 155.257 259.275,155.388 259.283,151.800 261.016 M237.800 262.554 C 232.903 265.087,229.277 266.400,225.000 267.189 C 220.858 267.953,220.800 267.975,220.800 268.797 C 220.800 269.227,222.742 271.788,225.115 274.489 C 230.468 280.582,232.577 282.000,236.282 282.000 C 239.437 282.000,239.473 282.264,236.898 286.591 C 233.084 293.002,229.324 293.577,224.623 288.467 C 215.585 278.646,215.662 278.680,212.186 282.886 C 208.415 287.446,208.496 286.862,210.949 291.860 C 214.032 298.142,214.025 298.140,226.060 295.650 C 229.283 294.983,234.143 294.150,236.860 293.799 C 245.000 292.749,246.514 292.106,247.931 289.097 C 251.138 282.288,253.204 277.452,253.784 275.400 C 254.156 274.080,255.348 271.347,256.431 269.326 C 259.179 264.198,259.067 263.623,255.200 263.037 C 254.210 262.886,251.330 262.236,248.800 261.592 C 246.270 260.948,243.840 260.342,243.400 260.246 C 242.930 260.143,240.619 261.095,237.800 262.554 M240.996 301.659 C 237.918 302.299,231.927 303.353,227.683 304.002 C 223.438 304.651,217.138 305.717,213.683 306.371 C 210.227 307.026,204.303 308.042,200.518 308.629 C 190.076 310.251,190.065 310.865,200.350 317.698 C 201.829 318.681,203.963 318.591,212.000 317.208 C 215.850 316.546,224.850 315.002,232.000 313.777 C 250.928 310.536,255.059 309.476,253.956 308.147 C 253.143 307.167,243.840 308.338,233.343 310.741 C 230.515 311.388,225.860 312.225,223.000 312.600 C 220.140 312.974,214.442 313.805,210.338 314.445 C 201.628 315.803,200.194 315.645,201.048 313.418 C 201.574 312.048,208.800 310.251,222.000 308.207 C 224.310 307.849,228.990 307.031,232.400 306.389 C 235.810 305.747,240.462 304.945,242.738 304.605 C 247.710 303.863,248.492 303.515,248.324 302.116 C 248.126 300.472,247.038 300.404,240.996 301.659 M187.443 322.633 C 186.063 326.228,188.960 330.298,194.089 331.969 C 198.491 333.404,199.511 326.426,195.131 324.841 C 194.399 324.576,192.720 323.824,191.400 323.169 C 188.707 321.832,187.797 321.709,187.443 322.633 M239.465 334.013 C 213.960 342.650,209.553 363.865,231.800 370.912 C 237.451 372.702,251.851 371.665,255.949 369.173 C 260.792 366.228,258.352 349.003,251.695 339.143 C 247.282 332.605,245.648 331.920,239.465 334.013 M188.011 335.786 C 187.315 336.625,187.069 366.284,187.747 367.646 C 189.006 370.174,194.765 372.778,196.114 371.429 C 197.254 370.289,196.610 338.604,195.426 337.622 C 193.844 336.309,188.646 335.022,188.011 335.786 M186.629 377.029 C 184.642 379.015,188.786 384.494,193.681 386.355 C 196.131 387.286,198.049 381.974,196.100 379.656 C 194.718 378.013,187.615 376.042,186.629 377.029 " stroke="none" fill="#fafafb" fill-rule="evenodd"></path></g></svg>